# xmcd CD database file
#
# Track frame offsets:
#	150
#	13457
#	27441
#	50219
#	69628
#	81647
#	93548
#	110781
#	122503
#	139230
#	151425
#	169023
#	181270
#	190768
#	206194
#	218162
#
# Disc length: 3065 seconds
#
# Revision: 0
# Processed by: cddbd v1.5.2PL0 Copyright (c) Steve Scherf et al.
# Submitted via: CDex 1.51
#
DISCID=f80bf710
DTITLE=Jon R. Benson - Sings Marty Robbins
DYEAR=1900
DGENRE=Country
TTITLE0=Tonight Carmen
TTITLE1=Devil Woman
TTITLE2=El Paso
TTITLE3=El Paso City
TTITLE4=Ribbon Of Darkness
TTITLE5=Story Of My Life
TTITLE6=Don't Worry About Me
TTITLE7=Begging To You
TTITLE8=My Woman, My Woman
TTITLE9=A White Sport Coat
TTITLE10=Big Iron
TTITLE11=Singing The Blues
TTITLE12=Ruby Ann
TTITLE13=I Walk Alone
TTITLE14=Streets Of Loredo
TTITLE15=Cattle Call
EXTD=
EXTT0=
EXTT1=
EXTT2=
EXTT3=
EXTT4=
EXTT5=
EXTT6=
EXTT7=
EXTT8=
EXTT9=
EXTT10=
EXTT11=
EXTT12=
EXTT13=
EXTT14=
EXTT15=
PLAYORDER=
